<svg xmlns="http://www.w3.org/2000/svg" width="41" height="39" viewBox="0 0 41 39" fill="none">
  <path d="M21.9195 5.7024L24.167 12.2823C24.5127 13.2941 25.4636 13.9742 26.5328 13.9742H33.5849C35.0561 13.9742 35.648 15.8717 34.4377 16.7082L28.9074 20.5302C27.987 21.1662 27.6013 22.3363 27.9629 23.395L30.1155 29.6966C30.583 31.0655 29.0332 32.2378 27.8432 31.4154L21.9213 27.3228C21.066 26.7317 19.934 26.7317 19.0787 27.3228L13.1568 31.4154C11.9668 32.2378 10.417 31.0655 10.8845 29.6966L13.0371 23.395C13.3987 22.3363 13.013 21.1662 12.0926 20.5302L6.56225 16.7082C5.35197 15.8717 5.94388 13.9742 7.41506 13.9742H14.4672C15.5364 13.9742 16.4873 13.2941 16.833 12.2823L19.0805 5.7024C19.5429 4.34889 21.4571 4.34889 21.9195 5.7024Z" fill="#FCDC3E" stroke="#FCDC3E"/>
  <path fill-rule="evenodd" clip-rule="evenodd" d="M27.1215 13.2869C26.2661 13.2869 25.5054 12.7429 25.2289 11.9334L22.9813 5.35352C22.3649 3.54884 19.8125 3.54884 19.1961 5.35352L16.9485 11.9334C16.672 12.7429 15.9113 13.2869 15.0559 13.2869H8.00375C6.04218 13.2869 5.25297 15.817 6.86667 16.9322L9.0745 18.4581C9.40871 18.689 9.80533 18.8127 10.2116 18.8127H31.9658C32.3721 18.8127 32.7687 18.689 33.1029 18.4581L35.3107 16.9322C36.9244 15.817 36.1352 13.2869 34.1736 13.2869H27.1215ZM32.7856 34.0562C32.7359 33.9106 32.5991 33.8127 32.4453 33.8127V33.8127C32.0925 33.8127 31.9506 34.2677 32.2408 34.4683V34.4683C32.5261 34.6655 32.8978 34.3844 32.7856 34.0562V34.0562ZM9.9366 34.4683C10.2268 34.2677 10.0849 33.8127 9.73212 33.8127V33.8127C9.57828 33.8127 9.44148 33.9106 9.39175 34.0562V34.0562C9.27963 34.3844 9.65126 34.6655 9.9366 34.4683V34.4683Z" fill="#FFFFEA"/>
</svg>